<svg class="w-full h-auto" width="149" height="148" viewBox="0 0 149 148" fill="none" xmlns="http://www.w3.org/2000/svg"><path d="M40.7345 108.731V40.4035L148.441 40.2571C141.341 16.9446 119.895 0 94.5692 0H56.3615C23.9729 0 0.953125 28.2166 0.953125 54.5301C0.953125 80.1848 17.7147 101.558 40.7345 108.731Z" fill="#FF0000"/><path d="M105.363 73.9276C105.363 91.4943 91.4927 105.767 74.3652 105.767C57.2376 105.767 43.3672 91.5309 43.3672 73.9276C43.3672 56.3243 57.2376 42.0879 74.3652 42.0879C91.4927 42.0879 105.363 56.3609 105.363 73.9276Z" fill="#FF0000"/><path d="M107.706 39.3057V107.633L0 107.743C7.06329 131.055 28.5093 148 53.8347 148H92.0424C124.431 148 147.451 119.783 147.451 93.4698C147.451 67.8516 130.726 46.4787 107.706 39.3057Z" fill="#FF0000"/></svg>